<svg id="Capa_1" enable-background="new 0 0 512 512" height="512" viewBox="0 0 512 512" width="512" xmlns="http://www.w3.org/2000/svg"><path d="m302.873 269.523v101.988c0 37.192-30.407 67.624-67.568 67.624h-35.065c-1.67 0-3.039 1.334-3.084 3.004-1.464 53.78-42.436 52.395-61.081 48.955-2.126-.392-2.277-3.36-.212-3.996 26.409-8.132 22.343-36.959 20.495-45.537-.306-1.42-1.567-2.425-3.018-2.425h-85.772c-37.161-.001-67.568-30.433-67.568-67.625v-101.988c0-37.192 30.407-67.624 67.568-67.624h167.738c37.16 0 67.567 30.432 67.567 67.624z" fill="#4fc3f7"/><path d="m235.306 201.899h-30.906c37.161 0 67.568 30.432 67.568 67.624v101.988c0 37.192-30.407 67.624-67.568 67.624h30.905c37.161 0 67.568-30.432 67.568-67.624v-101.988c0-37.192-30.407-67.624-67.567-67.624z" fill="#29b6f6"/><path d="m388.692 308.386c-19.052 46.964 7.435 69.049 21.331 76.975 2.12 1.209 1.396 4.447-1.035 4.665-70.692 6.326-69.547-54.973-66.658-78.079.538-4.301-2.816-8.091-7.149-8.091h-204.245c-36.47 0-66.036-29.574-66.036-66.056v-152.244c0-36.482 29.565-66.056 66.036-66.056h315.028c36.471 0 66.036 29.574 66.036 66.056v152.244c0 36.482-29.565 66.056-66.036 66.056h-50.579c-2.945 0-5.586 1.8-6.693 4.53z" fill="#f5f5f5"/><path d="m445.965 19.5h-30.905c36.47 0 66.035 29.574 66.035 66.056v152.244c0 36.482-29.565 66.056-66.035 66.056h30.905c36.47 0 66.035-29.574 66.035-66.056v-152.244c0-36.482-29.565-66.056-66.035-66.056z" fill="#d4d4d4"/><g fill="#4fc3f7"><circle cx="189.782" cy="149.889" r="18.543"/><circle cx="282.099" cy="149.889" r="18.543"/><circle cx="374.415" cy="149.889" r="18.543"/></g></svg>